<svg width="80" height="80" viewBox="0 0 66 68" xmlns="http://www.w3.org/2000/svg">
    <g xmlns="http://www.w3.org/2000/svg" style="-webkit-tap-highlight-color: rgba(0, 0, 0, 0);" transform="translate(-7, -16.5)">
    <path fill="none" stroke="#000000" d="M50,18.74993L68.749931,50L50,81.25002L31.249969,50L50,18.74993" stroke-width="3.5" stroke-linecap="round" stroke-miterlimit="6" style="stroke-linecap: round; stroke-miterlimit: 6;"/>
    <path fill="none" stroke="#000000" d="M50,56.25002L50,34.375" stroke-width="3.5" stroke-linecap="round" style="stroke-linecap: round;"></path>
    <path fill="#000000" stroke="none" d="M45.000008,48.12502C48.125008,54.37502,48.125008,56.25002,50,65.62502C51.875009,56.25002,51.875009,54.37502,55.000009,48.12502C51.250009,49.37502,48.750008,49.37502,45.000008,48.12502"/>
    <path fill="none" stroke="#000000" d="M17.187483,25C17.187483,22.41043,15.089568,20.31243,12.499988,20.31243C9.9104068,20.31243,7.8124922,22.41043,7.8124922,25C7.8124922,27.58959,9.9104068,29.68742,12.499988,29.68742C15.089568,29.68742,17.187483,27.58959,17.187483,25" stroke-width="3.5" stroke-linecap="round" stroke-miterlimit="6" style="stroke-linecap: round; stroke-miterlimit: 6;"/>
    <path fill="none" stroke="#000000" d="M17.187483,75C17.187483,72.41122,15.089568,70.31252,12.499988,70.31252C9.9104068,70.31252,7.8124922,72.41122,7.8124922,75C7.8124922,77.58872,9.9104068,79.68752,12.499988,79.68752C15.089568,79.68752,17.187483,77.58872,17.187483,75" stroke-width="3.5" stroke-linecap="round" stroke-miterlimit="6" style="stroke-linecap: round; stroke-miterlimit: 6;"/>
    <path fill="#000000" stroke="none" d="M 14 32.6844 L 11 32.6844 L 11 37 L 6.5297 37 L 6.5297 40 L 11 40 L 11 44.7751 L 14 44.7751 L 14 40 L 18.5297 40 L 18.5297 37 L 14 37 L 14 32.6844"/>
    <path fill="#000000" stroke="none" d="M 6.6091 62 L 6.6091 65 L 18.4957 65 L 18.4957 62 L 6.6091 62"/>
</g>
</svg>